{
    "asset": {
        "version": "2.0",
        "generator": "Open Asset Import Library (assimp v5.4.0)"
    },
    "extensionsUsed": [
        "KHR_materials_volume",
        "FB_ngon_encoding"
    ],
    "accessors": [
        {
            "bufferView": 0,
            "byteOffset": 0,
            "componentType": 5126,
            "count": 46304,
            "type": "VEC3",
            "max": [
                0.6826159954071045,
                0.9693610072135925,
                0.6030870079994202
            ],
            "min": [
                -0.6649580001831055,
                -1.0442700386047363,
                -0.6431429982185364
            ]
        },
        {
            "bufferView": 1,
            "byteOffset": 0,
            "componentType": 5126,
            "count": 46304,
            "type": "VEC3",
            "max": [
                0.9997050166130066,
                0.9999959468841553,
                0.9999349117279053
            ],
            "min": [
                -0.9998841285705566,
                -0.999988317489624,
                -0.9999114274978638
            ]
        },
        {
            "bufferView": 2,
            "byteOffset": 0,
            "componentType": 5126,
            "count": 46304,
            "type": "VEC2",
            "max": [
                0.998046875,
                0.998046875
            ],
            "min": [
                0.0021343231201171875,
                0.0093231201171875
            ]
        },
        {
            "bufferView": 3,
            "byteOffset": 0,
            "componentType": 5125,
            "count": 177678,
            "type": "SCALAR",
            "max": [
                46303
            ],
            "min": [
                0
            ]
        }
    ],
    "buffers": [
        {
            "byteLength": 2192440,
            "uri": "v19_0.bin"
        }
    ],
    "bufferViews": [
        {
            "buffer": 0,
            "byteOffset": 0,
            "byteLength": 555648,
            "target": 34962
        },
        {
            "buffer": 0,
            "byteOffset": 555648,
            "byteLength": 555648,
            "target": 34962
        },
        {
            "buffer": 0,
            "byteOffset": 1111296,
            "byteLength": 370432,
            "target": 34962
        },
        {
            "buffer": 0,
            "byteOffset": 1481728,
            "byteLength": 710712,
            "target": 34963
        }
    ],
    "images": [
        {
            "uri": "textures/image_0.png"
        }
    ],
    "materials": [
        {
            "name": "Mat_1",
            "pbrMetallicRoughness": {
                "baseColorTexture": {
                    "index": 0
                },
                "metallicFactor": 0.0,
                "roughnessFactor": 0.800000011920929
            },
            "doubleSided": true
        }
    ],
    "meshes": [
        {
            "name": "meshes[0]",
            "primitives": [
                {
                    "mode": 4,
                    "material": 0,
                    "indices": 3,
                    "attributes": {
                        "POSITION": 0,
                        "NORMAL": 1,
                        "TEXCOORD_0": 2
                    }
                }
            ]
        }
    ],
    "nodes": [
        {
            "name": "v19",
            "children": [
                1
            ]
        },
        {
            "name": "mesh_0",
            "mesh": 0
        }
    ],
    "samplers": [
        {
            "magFilter": 9729,
            "minFilter": 9987
        }
    ],
    "scenes": [
        {
            "nodes": [
                0
            ]
        }
    ],
    "textures": [
        {
            "source": 0,
            "sampler": 0
        }
    ],
    "scene": 0
}