{
    "asset": {
        "version": "2.0",
        "generator": "Open Asset Import Library (assimp v5.4.0)"
    },
    "extensionsUsed": [
        "KHR_materials_volume",
        "FB_ngon_encoding"
    ],
    "accessors": [
        {
            "bufferView": 0,
            "byteOffset": 0,
            "componentType": 5126,
            "count": 44790,
            "type": "VEC3",
            "max": [
                0.9949949979782104,
                0.7705109715461731,
                0.6994510293006897
            ],
            "min": [
                -1.011929988861084,
                -0.808118999004364,
                -0.7023069858551025
            ]
        },
        {
            "bufferView": 1,
            "byteOffset": 0,
            "componentType": 5126,
            "count": 44790,
            "type": "VEC3",
            "max": [
                0.9998467564582825,
                0.9998886585235596,
                0.9999753832817078
            ],
            "min": [
                -0.9997231364250183,
                -0.9998561143875122,
                -1.0
            ]
        },
        {
            "bufferView": 2,
            "byteOffset": 0,
            "componentType": 5126,
            "count": 44790,
            "type": "VEC2",
            "max": [
                0.9921875,
                0.99853515625
            ],
            "min": [
                0.0015735626220703125,
                0.0015735626220703125
            ]
        },
        {
            "bufferView": 3,
            "byteOffset": 0,
            "componentType": 5125,
            "count": 175326,
            "type": "SCALAR",
            "max": [
                44789
            ],
            "min": [
                0
            ]
        }
    ],
    "buffers": [
        {
            "byteLength": 2134584,
            "uri": "v2_0.bin"
        }
    ],
    "bufferViews": [
        {
            "buffer": 0,
            "byteOffset": 0,
            "byteLength": 537480,
            "target": 34962
        },
        {
            "buffer": 0,
            "byteOffset": 537480,
            "byteLength": 537480,
            "target": 34962
        },
        {
            "buffer": 0,
            "byteOffset": 1074960,
            "byteLength": 358320,
            "target": 34962
        },
        {
            "buffer": 0,
            "byteOffset": 1433280,
            "byteLength": 701304,
            "target": 34963
        }
    ],
    "images": [
        {
            "uri": "textures/image_0.png"
        }
    ],
    "materials": [
        {
            "name": "Mat_1",
            "pbrMetallicRoughness": {
                "baseColorTexture": {
                    "index": 0
                },
                "metallicFactor": 0.0,
                "roughnessFactor": 0.800000011920929
            },
            "doubleSided": true
        }
    ],
    "meshes": [
        {
            "name": "meshes[0]",
            "primitives": [
                {
                    "mode": 4,
                    "material": 0,
                    "indices": 3,
                    "attributes": {
                        "POSITION": 0,
                        "NORMAL": 1,
                        "TEXCOORD_0": 2
                    }
                }
            ]
        }
    ],
    "nodes": [
        {
            "name": "v2",
            "children": [
                1
            ]
        },
        {
            "name": "mesh_0",
            "mesh": 0
        }
    ],
    "samplers": [
        {
            "magFilter": 9729,
            "minFilter": 9987
        }
    ],
    "scenes": [
        {
            "nodes": [
                0
            ]
        }
    ],
    "textures": [
        {
            "source": 0,
            "sampler": 0
        }
    ],
    "scene": 0
}