{
    "asset": {
        "version": "2.0",
        "generator": "Open Asset Import Library (assimp v5.4.0)"
    },
    "extensionsUsed": [
        "KHR_materials_volume",
        "FB_ngon_encoding"
    ],
    "accessors": [
        {
            "bufferView": 0,
            "byteOffset": 0,
            "componentType": 5126,
            "count": 53232,
            "type": "VEC3",
            "max": [
                0.7976449728012085,
                0.9909650087356567,
                0.7181059718132019
            ],
            "min": [
                -0.8011829853057861,
                -0.9973469972610474,
                -0.6989499926567078
            ]
        },
        {
            "bufferView": 1,
            "byteOffset": 0,
            "componentType": 5126,
            "count": 53232,
            "type": "VEC3",
            "max": [
                0.9999945163726807,
                1.0,
                0.9999266862869263
            ],
            "min": [
                -0.9998923540115356,
                -0.9997780919075012,
                -0.9998055100440979
            ]
        },
        {
            "bufferView": 2,
            "byteOffset": 0,
            "componentType": 5126,
            "count": 53232,
            "type": "VEC2",
            "max": [
                0.99755859375,
                0.99755859375
            ],
            "min": [
                0.002590179443359375,
                0.0102081298828125
            ]
        },
        {
            "bufferView": 3,
            "byteOffset": 0,
            "componentType": 5125,
            "count": 176337,
            "type": "SCALAR",
            "max": [
                53231
            ],
            "min": [
                0
            ]
        }
    ],
    "buffers": [
        {
            "byteLength": 2408772,
            "uri": "v21_0.bin"
        }
    ],
    "bufferViews": [
        {
            "buffer": 0,
            "byteOffset": 0,
            "byteLength": 638784,
            "target": 34962
        },
        {
            "buffer": 0,
            "byteOffset": 638784,
            "byteLength": 638784,
            "target": 34962
        },
        {
            "buffer": 0,
            "byteOffset": 1277568,
            "byteLength": 425856,
            "target": 34962
        },
        {
            "buffer": 0,
            "byteOffset": 1703424,
            "byteLength": 705348,
            "target": 34963
        }
    ],
    "images": [
        {
            "uri": "textures/image_0.png"
        }
    ],
    "materials": [
        {
            "name": "Mat_1",
            "pbrMetallicRoughness": {
                "baseColorTexture": {
                    "index": 0
                },
                "metallicFactor": 0.0,
                "roughnessFactor": 0.800000011920929
            },
            "doubleSided": true
        }
    ],
    "meshes": [
        {
            "name": "meshes[0]",
            "primitives": [
                {
                    "mode": 4,
                    "material": 0,
                    "indices": 3,
                    "attributes": {
                        "POSITION": 0,
                        "NORMAL": 1,
                        "TEXCOORD_0": 2
                    }
                }
            ]
        }
    ],
    "nodes": [
        {
            "name": "v21",
            "children": [
                1
            ]
        },
        {
            "name": "mesh_0",
            "mesh": 0
        }
    ],
    "samplers": [
        {
            "magFilter": 9729,
            "minFilter": 9987
        }
    ],
    "scenes": [
        {
            "nodes": [
                0
            ]
        }
    ],
    "textures": [
        {
            "source": 0,
            "sampler": 0
        }
    ],
    "scene": 0
}