{
    "asset": {
        "version": "2.0",
        "generator": "Open Asset Import Library (assimp v5.4.0)"
    },
    "extensionsUsed": [
        "KHR_materials_volume",
        "FB_ngon_encoding"
    ],
    "accessors": [
        {
            "bufferView": 0,
            "byteOffset": 0,
            "componentType": 5126,
            "count": 42411,
            "type": "VEC3",
            "max": [
                0.6132559776306152,
                0.9799439907073975,
                0.5538989901542664
            ],
            "min": [
                -0.6127550005912781,
                -1.0025019645690918,
                -0.5568479895591736
            ]
        },
        {
            "bufferView": 1,
            "byteOffset": 0,
            "componentType": 5126,
            "count": 42411,
            "type": "VEC3",
            "max": [
                0.9999997615814209,
                0.9999866485595703,
                0.9999926090240479
            ],
            "min": [
                -0.9999693632125854,
                -0.9999886155128479,
                -0.9999991655349731
            ]
        },
        {
            "bufferView": 2,
            "byteOffset": 0,
            "componentType": 5126,
            "count": 42411,
            "type": "VEC2",
            "max": [
                0.9990234375,
                0.9990234375
            ],
            "min": [
                0.0009121894836425781,
                0.03924560546875
            ]
        },
        {
            "bufferView": 3,
            "byteOffset": 0,
            "componentType": 5125,
            "count": 193839,
            "type": "SCALAR",
            "max": [
                42410
            ],
            "min": [
                0
            ]
        }
    ],
    "buffers": [
        {
            "byteLength": 2132508,
            "uri": "v4_0.bin"
        }
    ],
    "bufferViews": [
        {
            "buffer": 0,
            "byteOffset": 0,
            "byteLength": 508932,
            "target": 34962
        },
        {
            "buffer": 0,
            "byteOffset": 508932,
            "byteLength": 508932,
            "target": 34962
        },
        {
            "buffer": 0,
            "byteOffset": 1017864,
            "byteLength": 339288,
            "target": 34962
        },
        {
            "buffer": 0,
            "byteOffset": 1357152,
            "byteLength": 775356,
            "target": 34963
        }
    ],
    "images": [
        {
            "uri": "textures/image_0.png"
        }
    ],
    "materials": [
        {
            "name": "Mat_1",
            "pbrMetallicRoughness": {
                "baseColorTexture": {
                    "index": 0
                },
                "metallicFactor": 0.0,
                "roughnessFactor": 0.800000011920929
            },
            "doubleSided": true
        }
    ],
    "meshes": [
        {
            "name": "meshes[0]",
            "primitives": [
                {
                    "mode": 4,
                    "material": 0,
                    "indices": 3,
                    "attributes": {
                        "POSITION": 0,
                        "NORMAL": 1,
                        "TEXCOORD_0": 2
                    }
                }
            ]
        }
    ],
    "nodes": [
        {
            "name": "v4",
            "children": [
                1
            ]
        },
        {
            "name": "mesh_0",
            "mesh": 0
        }
    ],
    "samplers": [
        {
            "magFilter": 9729,
            "minFilter": 9987
        }
    ],
    "scenes": [
        {
            "nodes": [
                0
            ]
        }
    ],
    "textures": [
        {
            "source": 0,
            "sampler": 0
        }
    ],
    "scene": 0
}