{
    "asset": {
        "version": "2.0",
        "generator": "Open Asset Import Library (assimp v5.4.0)"
    },
    "extensionsUsed": [
        "KHR_materials_volume",
        "FB_ngon_encoding"
    ],
    "accessors": [
        {
            "bufferView": 0,
            "byteOffset": 0,
            "componentType": 5126,
            "count": 32667,
            "type": "VEC3",
            "max": [
                0.6126700043678284,
                0.9968569874763489,
                0.6660559773445129
            ],
            "min": [
                -0.6325550079345703,
                -1.00177001953125,
                -0.6788300275802612
            ]
        },
        {
            "bufferView": 1,
            "byteOffset": 0,
            "componentType": 5126,
            "count": 32667,
            "type": "VEC3",
            "max": [
                0.9999916553497314,
                0.9999932050704956,
                0.9999383687973022
            ],
            "min": [
                -0.9999918341636658,
                -0.9999959468841553,
                -0.9998972415924072
            ]
        },
        {
            "bufferView": 2,
            "byteOffset": 0,
            "componentType": 5126,
            "count": 32667,
            "type": "VEC2",
            "max": [
                0.99169921875,
                0.9990234375
            ],
            "min": [
                0.0009222030639648438,
                0.0009222030639648438
            ]
        },
        {
            "bufferView": 3,
            "byteOffset": 0,
            "componentType": 5125,
            "count": 157725,
            "type": "SCALAR",
            "max": [
                32666
            ],
            "min": [
                0
            ]
        }
    ],
    "buffers": [
        {
            "byteLength": 1676244,
            "uri": "v6_0.bin"
        }
    ],
    "bufferViews": [
        {
            "buffer": 0,
            "byteOffset": 0,
            "byteLength": 392004,
            "target": 34962
        },
        {
            "buffer": 0,
            "byteOffset": 392004,
            "byteLength": 392004,
            "target": 34962
        },
        {
            "buffer": 0,
            "byteOffset": 784008,
            "byteLength": 261336,
            "target": 34962
        },
        {
            "buffer": 0,
            "byteOffset": 1045344,
            "byteLength": 630900,
            "target": 34963
        }
    ],
    "images": [
        {
            "uri": "textures/image_0.png"
        }
    ],
    "materials": [
        {
            "name": "Mat_1",
            "pbrMetallicRoughness": {
                "baseColorTexture": {
                    "index": 0
                },
                "metallicFactor": 0.0,
                "roughnessFactor": 0.800000011920929
            },
            "doubleSided": true
        }
    ],
    "meshes": [
        {
            "name": "meshes[0]",
            "primitives": [
                {
                    "mode": 4,
                    "material": 0,
                    "indices": 3,
                    "attributes": {
                        "POSITION": 0,
                        "NORMAL": 1,
                        "TEXCOORD_0": 2
                    }
                }
            ]
        }
    ],
    "nodes": [
        {
            "name": "v6",
            "children": [
                1
            ]
        },
        {
            "name": "mesh_0",
            "mesh": 0
        }
    ],
    "samplers": [
        {
            "magFilter": 9729,
            "minFilter": 9987
        }
    ],
    "scenes": [
        {
            "nodes": [
                0
            ]
        }
    ],
    "textures": [
        {
            "source": 0,
            "sampler": 0
        }
    ],
    "scene": 0
}